<svg width="19" height="19" viewBox="0 0 19 19" fill="none" xmlns="http://www.w3.org/2000/svg">
<mask id="mask0_142_921" style="mask-type:luminance" maskUnits="userSpaceOnUse" x="3" y="11" width="13" height="7">
<path fill-rule="evenodd" clip-rule="evenodd" d="M3.16699 11.4761H15.7069V17.3138H3.16699V11.4761Z" fill="white"/>
</mask>
<g mask="url(#mask0_142_921)">
<path fill-rule="evenodd" clip-rule="evenodd" d="M9.43778 12.6636C6.06449 12.6636 4.35449 13.2431 4.35449 14.387C4.35449 15.5413 6.06449 16.1263 9.43778 16.1263C12.8103 16.1263 14.5195 15.5468 14.5195 14.4029C14.5195 13.2486 12.8103 12.6636 9.43778 12.6636ZM9.43778 17.3138C7.88691 17.3138 3.16699 17.3138 3.16699 14.387C3.16699 11.7777 6.74612 11.4761 9.43778 11.4761C10.9887 11.4761 15.707 11.4761 15.707 14.4029C15.707 17.0122 12.1287 17.3138 9.43778 17.3138Z" fill="#9DB2CE"/>
</g>
<mask id="mask1_142_921" style="mask-type:luminance" maskUnits="userSpaceOnUse" x="5" y="1" width="9" height="9">
<path fill-rule="evenodd" clip-rule="evenodd" d="M5.2334 1.58344H13.6409V9.98983H5.2334V1.58344Z" fill="white"/>
</mask>
<g mask="url(#mask1_142_921)">
<path fill-rule="evenodd" clip-rule="evenodd" d="M9.43797 2.71363C7.74301 2.71363 6.36392 4.09192 6.36392 5.78688C6.35838 7.4763 7.72717 8.8538 9.41501 8.86013L9.43797 9.42538V8.86013C11.1321 8.86013 12.5104 7.48105 12.5104 5.78688C12.5104 4.09192 11.1321 2.71363 9.43797 2.71363ZM9.43796 9.98984H9.41263C7.09938 9.98271 5.22551 8.09617 5.23342 5.7845C5.23342 3.46888 7.11917 1.58313 9.43796 1.58313C11.756 1.58313 13.6409 3.46888 13.6409 5.78688C13.6409 8.10488 11.756 9.98984 9.43796 9.98984Z" fill="#9DB2CE"/>
</g>
</svg>
